
<svg id="Layer_1" data-name="Layer 1" xmlns="http://www.w3.org/2000/svg" xmlns:xlink="http://www.w3.org/1999/xlink" viewBox="0 0 387.4 141.13" style="background-color:#fff;"><defs><style>.cls-1{fill:none;}.cls-2{fill:#555059;}.cls-3{clip-path:url(#clip-path);}.cls-4{fill:#00a3af;}</style><clipPath id="clip-path" transform="translate(-4.06 -1.35)"><rect class="cls-1" x="-101.92" y="-75.8" width="600" height="340.11"/></clipPath></defs><title>FM_logo</title><polygon class="cls-2" points="52.63 97.69 7.71 41 4.6 41.28 0 141.12 22.19 141.12 23.14 92.42 50.87 127.19 53.31 127.19 80.77 92.42 81.99 141.12 104.31 141.12 99.58 41.28 96.47 41 52.63 97.69"/><polygon class="cls-2" points="303.35 41.95 276.15 41.95 241.38 85.11 241.38 41.95 218.38 41.95 218.38 141.12 241.38 141.12 241.38 94.72 277.77 141.12 305.51 141.12 262.62 89.17 303.35 41.95"/><polygon class="cls-2" points="387.4 63.06 387.4 41.95 319.04 41.95 319.04 141.13 387.4 141.13 387.4 120.15 342.04 120.15 342.04 100.81 383.89 100.81 383.89 80.78 342.04 80.78 342.04 63.06 387.4 63.06"/><polygon class="cls-2" points="0 0.58 0 30.97 5.18 30.97 5.18 18.78 16.91 18.78 16.91 14.18 5.18 14.18 5.18 5.31 18.53 5.31 18.53 0.58 0 0.58"/><polygon class="cls-2" points="23.01 0.58 23.01 30.97 41.54 30.97 41.54 26.24 28.19 26.24 28.19 0.58 23.01 0.58"/><polygon class="cls-2" points="74.92 0 74.09 0.17 74.09 30.97 79.27 30.97 79.27 11.48 98.3 31.55 98.87 31.42 98.87 0.58 93.69 0.58 93.69 19.77 74.92 0"/><g class="cls-3"><path class="cls-2" d="M118.65,6.28a27.3,27.3,0,0,0-3.9.24V27.71a25,25,0,0,0,4.35.25c7.79,0,11.32-4.69,11.32-11.11S126.36,6.28,118.65,6.28m-.34,26.28a84.27,84.27,0,0,1-8.74-.5V2.21A71.54,71.54,0,0,1,118,1.72c12,0,18,6.92,18,15.13,0,8.54-5.63,15.71-17.66,15.71" transform="translate(-4.06 -1.35)"/><polygon class="cls-2" points="137.52 0.58 137.52 30.97 156.05 30.97 156.05 26.24 142.7 26.24 142.7 17.83 154.76 17.83 154.76 13.27 142.7 13.27 142.7 5.31 156.05 5.31 156.05 0.58 137.52 0.58"/><path class="cls-2" d="M174.9,6.36a18.14,18.14,0,0,0-3.48.25V17a22.56,22.56,0,0,0,3,.17c4.51,0,6.79-2.11,6.79-5.6,0-3.06-2.32-5.18-6.3-5.18m7.8,26-6.64-10.94c-.54,0-1,0-1.61,0-1,0-2,0-3-.09v11h-5.18V2.22a62.6,62.6,0,0,1,8-.5c8.62,0,12.44,4.18,12.44,9.57a9.34,9.34,0,0,1-5.93,8.79l8,12.23Z" transform="translate(-4.06 -1.35)"/><path class="cls-2" d="M199.69,32.81a17.82,17.82,0,0,1-9.53-3l1.78-4.64A14.11,14.11,0,0,0,199.86,28c3.19,0,4.6-1.86,4.6-4s-.91-3.44-5.72-5.47c-5.31-2.24-7.21-5-7.21-8.62,0-4.4,3.64-8.5,10-8.5a14.48,14.48,0,0,1,7.63,2.19l-1.66,4.56A11.85,11.85,0,0,0,201.39,6c-3.19,0-4.68,1.74-4.68,3.77S198.2,13,202,14.69c6,2.61,7.75,5.06,7.75,9,0,4.89-3.77,9.08-10,9.08" transform="translate(-4.06 -1.35)"/><path class="cls-4" d="M147.65,123.79l16.87-40.72,17,40.72ZM164.77,39,116.49,142.47H213Z" transform="translate(-4.06 -1.35)"/><path class="cls-4" d="M60.52,11.09l7,16.5H53.56Zm-.29-9.58-14,30.8H75L61,1.51Z" transform="translate(-4.06 -1.35)"/></g></svg>