<?xml version="1.0" encoding="UTF-8" standalone="no"?><!DOCTYPE svg PUBLIC "-//W3C//DTD SVG 1.1//EN" "http://www.w3.org/Graphics/SVG/1.1/DTD/svg11.dtd"><svg width="100%" height="100%" viewBox="0 0 204 49" version="1.1" xmlns="http://www.w3.org/2000/svg" xmlns:xlink="http://www.w3.org/1999/xlink" xml:space="preserve" xmlns:serif="http://www.serif.com/" style="fill-rule:evenodd;clip-rule:evenodd;stroke-linejoin:round;stroke-miterlimit:2;"><g><rect x="0" y="0.716" width="203.354" height="48.284" style="fill:#fff;"/><path d="M75.421,15.304l-0,11.244c-0,2.573 -0.106,5.118 -2.095,7.055c-1.671,1.644 -4.296,2.227 -6.63,2.227c-2.334,-0 -4.959,-0.583 -6.63,-2.227c-1.989,-1.937 -2.095,-4.482 -2.095,-7.055l0,-11.244l5.198,0l-0,10.528c-0,2.599 0.186,5.437 3.527,5.437c3.342,-0 3.527,-2.838 3.527,-5.437l-0,-10.528l5.198,0Z" style="fill:#181b1c;fill-rule:nonzero;"/><path d="M91.407,23.021l-0,-7.717l5.199,0l0,19.996l-5.199,0l-0,-8.195l-7.505,-0l0,8.195l-5.197,0l0,-19.996l5.197,0l0,7.717l7.505,-0Z" style="fill:#181b1c;fill-rule:nonzero;"/><path d="M108.72,21.483l-0.053,-0l-2.148,6.365l4.323,-0l-2.122,-6.365Zm-3.633,10.343l-1.379,3.474l-5.517,0l7.692,-19.996l5.675,0l7.531,19.996l-5.542,0l-1.299,-3.474l-7.161,0Z" style="fill:#181b1c;fill-rule:nonzero;"/><path d="M131.682,20.449c-0.955,-0.796 -2.175,-1.326 -3.449,-1.326c-0.953,-0 -2.227,0.557 -2.227,1.67c-0,1.167 1.407,1.618 2.307,1.91l1.327,0.398c2.784,0.822 4.933,2.227 4.933,5.463c-0,1.989 -0.478,4.031 -2.069,5.383c-1.566,1.326 -3.661,1.883 -5.675,1.883c-2.52,-0 -4.986,-0.849 -7.028,-2.281l2.228,-4.19c1.299,1.14 2.838,2.069 4.614,2.069c1.22,-0 2.519,-0.61 2.519,-2.015c0,-1.459 -2.041,-1.963 -3.156,-2.281c-3.261,-0.928 -5.41,-1.777 -5.41,-5.649c0,-4.058 2.891,-6.71 6.896,-6.71c2.015,-0 4.481,0.637 6.258,1.645l-2.068,4.031Z" style="fill:#181b1c;fill-rule:nonzero;"/><path d="M148.014,20.449c-0.955,-0.796 -2.175,-1.326 -3.448,-1.326c-0.954,-0 -2.228,0.557 -2.228,1.67c-0,1.167 1.407,1.618 2.308,1.91l1.326,0.398c2.784,0.822 4.933,2.227 4.933,5.463c-0,1.989 -0.478,4.031 -2.069,5.383c-1.565,1.326 -3.66,1.883 -5.675,1.883c-2.52,-0 -4.986,-0.849 -7.028,-2.281l2.228,-4.19c1.299,1.14 2.838,2.069 4.614,2.069c1.22,-0 2.52,-0.61 2.52,-2.015c-0,-1.459 -2.042,-1.963 -3.157,-2.281c-3.261,-0.928 -5.41,-1.777 -5.41,-5.649c-0,-4.058 2.891,-6.71 6.896,-6.71c2.015,-0 4.481,0.637 6.259,1.645l-2.069,4.031Z" style="fill:#181b1c;fill-rule:nonzero;"/><path d="M158.565,19.706l0,3.342l5.86,0l0,4.402l-5.86,0l0,3.447l6.179,-0l0,4.403l-11.377,0l0,-19.996l11.377,0l0,4.402l-6.179,-0Z" style="fill:#181b1c;fill-rule:nonzero;"/><path d="M173.147,30.897l6.231,-0l0,4.403l-11.429,0l0,-19.996l5.198,0l0,15.593Z" style="fill:#181b1c;fill-rule:nonzero;"/><path d="M189.029,35.3l-5.198,0l-0,-15.594l-4.296,-0l0,-4.402l13.79,0l-0,4.402l-4.296,-0l0,15.594Z" style="fill:#181b1c;fill-rule:nonzero;"/><path d="M51.162,44.939l148.129,0l0,-40.161l-148.129,-0l-0,40.161Zm152.192,4.061l-156.252,0l0,-48.284l156.252,-0l0,48.284Z" style="fill:#181b1c;fill-rule:nonzero;"/><path d="M4.061,44.939l43.091,0l0,-40.161l-43.091,-0l-0,40.161Zm47.155,4.061l-51.216,0l0,-48.284l51.216,-0l-0,48.284Z" style="fill:#181b1c;fill-rule:nonzero;"/><path d="M12.787,18.031l12.455,7.714l-12.455,7.716l-0,-15.43Z" style="fill:#181b1c;fill-rule:nonzero;"/><path d="M28.003,18.031l12.455,7.714l-12.455,7.716l0,-15.43Z" style="fill:#181b1c;fill-rule:nonzero;"/></g></svg>